<svg xmlns="http://www.w3.org/2000/svg" viewBox="0 0 495 495"><defs><style>.cls-1{fill:#377cc3;}.cls-2{fill:#2c3e50;}.cls-3{fill:none;stroke:#fff;stroke-linecap:round;stroke-miterlimit:10;stroke-width:60px;}</style></defs><title>icon-box</title><g id="Layer_2" data-name="Layer 2"><g id="Layer_5" data-name="Layer 5"><rect class="cls-1" x="17" y="17" width="461" height="461" rx="60.94" ry="60.94"/><path class="cls-2" d="M417.06,34A44.18,44.18,0,0,1,461,77.94V417.06A44.18,44.18,0,0,1,417.06,461H77.94A44.18,44.18,0,0,1,34,417.06V77.94A44.18,44.18,0,0,1,77.94,34H417.06m0-34H77.94A78.17,78.17,0,0,0,0,77.94V417.06A78.17,78.17,0,0,0,77.94,495H417.06A78.17,78.17,0,0,0,495,417.06V77.94A78.17,78.17,0,0,0,417.06,0Z"/></g><g id="Layer_3" data-name="Layer 3"><polyline class="cls-3" points="165.18 129.3 165.18 349.7 248.56 275.35 329.82 349.7 329.82 129.3 262.75 129.5"/></g></g></svg>