<svg xmlns="http://www.w3.org/2000/svg" viewBox="0 0 322 497"><defs><style>.cls-1{fill:#56799c;}</style></defs><title>Asset 2-svg</title><g id="Layer_2" data-name="Layer 2"><g id="Layer_1-2" data-name="Layer 1"><path class="cls-1" d="M34,0H12A12,12,0,0,0,0,12V485a12,12,0,0,0,12,12H34Z"/><path class="cls-1" d="M166,394.06q0-24.75-27.7-75-12.92-23.29-51.7-83.24-27.7-42.94-27.7-50.71H141.7q0,8.73,33.11,73.65t33.11,83.83h4.22q0-17.46,32.32-79.59t32.31-77.89H322V12A12,12,0,0,0,310,0H290V134.5L241.5,86,193,134.5V0H44V497H163.28Q166,445.87,166,394.06Z"/><path class="cls-1" d="M321.09,238.76q-46.17,66.74-56.19,83-30.07,49.26-30.07,73,0,51.33,2.93,102.21H310a12,12,0,0,0,12-12V237.43Z"/></g></g></svg>